%TF.GenerationSoftware,KiCad,Pcbnew,(5.1.9)-1*%
%TF.CreationDate,2021-05-11T19:40:18+08:00*%
%TF.ProjectId,TFTConv,54465443-6f6e-4762-9e6b-696361645f70,rev?*%
%TF.SameCoordinates,Original*%
%TF.FileFunction,Legend,Top*%
%TF.FilePolarity,Positive*%
%FSLAX46Y46*%
G04 Gerber Fmt 4.6, Leading zero omitted, Abs format (unit mm)*
G04 Created by KiCad (PCBNEW (5.1.9)-1) date 2021-05-11 19:40:18*
%MOMM*%
%LPD*%
G01*
G04 APERTURE LIST*
%ADD10C,0.120000*%
%ADD11C,0.150000*%
G04 APERTURE END LIST*
D10*
%TO.C,J5*%
X174370000Y-132970000D02*
X177030000Y-132970000D01*
X174370000Y-132970000D02*
X174370000Y-135570000D01*
X174370000Y-135570000D02*
X177030000Y-135570000D01*
X177030000Y-132970000D02*
X177030000Y-135570000D01*
X177030000Y-130370000D02*
X177030000Y-131700000D01*
X175700000Y-130370000D02*
X177030000Y-130370000D01*
%TO.C,J4*%
X170270000Y-132970000D02*
X172930000Y-132970000D01*
X170270000Y-132970000D02*
X170270000Y-135570000D01*
X170270000Y-135570000D02*
X172930000Y-135570000D01*
X172930000Y-132970000D02*
X172930000Y-135570000D01*
X172930000Y-130370000D02*
X172930000Y-131700000D01*
X171600000Y-130370000D02*
X172930000Y-130370000D01*
%TO.C,J3*%
X178470000Y-132970000D02*
X181130000Y-132970000D01*
X178470000Y-132970000D02*
X178470000Y-135570000D01*
X178470000Y-135570000D02*
X181130000Y-135570000D01*
X181130000Y-132970000D02*
X181130000Y-135570000D01*
X181130000Y-130370000D02*
X181130000Y-131700000D01*
X179800000Y-130370000D02*
X181130000Y-130370000D01*
%TO.C,J2*%
X174830000Y-77770000D02*
X177430000Y-77770000D01*
X174830000Y-77770000D02*
X174830000Y-121070000D01*
X174830000Y-121070000D02*
X180030000Y-121070000D01*
X180030000Y-80370000D02*
X180030000Y-121070000D01*
X177430000Y-80370000D02*
X180030000Y-80370000D01*
X177430000Y-77770000D02*
X177430000Y-80370000D01*
X180030000Y-77770000D02*
X180030000Y-79100000D01*
X178700000Y-77770000D02*
X180030000Y-77770000D01*
%TO.C,J5*%
D11*
X175366666Y-128382380D02*
X175366666Y-129096666D01*
X175319047Y-129239523D01*
X175223809Y-129334761D01*
X175080952Y-129382380D01*
X174985714Y-129382380D01*
X176319047Y-128382380D02*
X175842857Y-128382380D01*
X175795238Y-128858571D01*
X175842857Y-128810952D01*
X175938095Y-128763333D01*
X176176190Y-128763333D01*
X176271428Y-128810952D01*
X176319047Y-128858571D01*
X176366666Y-128953809D01*
X176366666Y-129191904D01*
X176319047Y-129287142D01*
X176271428Y-129334761D01*
X176176190Y-129382380D01*
X175938095Y-129382380D01*
X175842857Y-129334761D01*
X175795238Y-129287142D01*
%TO.C,J4*%
X171266666Y-128382380D02*
X171266666Y-129096666D01*
X171219047Y-129239523D01*
X171123809Y-129334761D01*
X170980952Y-129382380D01*
X170885714Y-129382380D01*
X172171428Y-128715714D02*
X172171428Y-129382380D01*
X171933333Y-128334761D02*
X171695238Y-129049047D01*
X172314285Y-129049047D01*
%TO.C,J3*%
X179466666Y-128382380D02*
X179466666Y-129096666D01*
X179419047Y-129239523D01*
X179323809Y-129334761D01*
X179180952Y-129382380D01*
X179085714Y-129382380D01*
X179847619Y-128382380D02*
X180466666Y-128382380D01*
X180133333Y-128763333D01*
X180276190Y-128763333D01*
X180371428Y-128810952D01*
X180419047Y-128858571D01*
X180466666Y-128953809D01*
X180466666Y-129191904D01*
X180419047Y-129287142D01*
X180371428Y-129334761D01*
X180276190Y-129382380D01*
X179990476Y-129382380D01*
X179895238Y-129334761D01*
X179847619Y-129287142D01*
%TO.C,J2*%
X177096666Y-75782380D02*
X177096666Y-76496666D01*
X177049047Y-76639523D01*
X176953809Y-76734761D01*
X176810952Y-76782380D01*
X176715714Y-76782380D01*
X177525238Y-75877619D02*
X177572857Y-75830000D01*
X177668095Y-75782380D01*
X177906190Y-75782380D01*
X178001428Y-75830000D01*
X178049047Y-75877619D01*
X178096666Y-75972857D01*
X178096666Y-76068095D01*
X178049047Y-76210952D01*
X177477619Y-76782380D01*
X178096666Y-76782380D01*
%TD*%
M02*
