%TF.GenerationSoftware,KiCad,Pcbnew,(5.1.9)-1*%
%TF.CreationDate,2021-05-11T19:40:18+08:00*%
%TF.ProjectId,TFTConv,54465443-6f6e-4762-9e6b-696361645f70,rev?*%
%TF.SameCoordinates,Original*%
%TF.FileFunction,Copper,L1,Top*%
%TF.FilePolarity,Positive*%
%FSLAX46Y46*%
G04 Gerber Fmt 4.6, Leading zero omitted, Abs format (unit mm)*
G04 Created by KiCad (PCBNEW (5.1.9)-1) date 2021-05-11 19:40:18*
%MOMM*%
%LPD*%
G01*
G04 APERTURE LIST*
%TA.AperFunction,ComponentPad*%
%ADD10O,1.700000X1.700000*%
%TD*%
%TA.AperFunction,ComponentPad*%
%ADD11R,1.700000X1.700000*%
%TD*%
%TA.AperFunction,ViaPad*%
%ADD12C,0.800000*%
%TD*%
%TA.AperFunction,Conductor*%
%ADD13C,0.381000*%
%TD*%
%TA.AperFunction,Conductor*%
%ADD14C,0.250000*%
%TD*%
%ADD15C,0.350000*%
G04 APERTURE END LIST*
D10*
%TO.P,J5,2*%
%TO.N,GND*%
X175700000Y-134240000D03*
D11*
%TO.P,J5,1*%
X175700000Y-131700000D03*
%TD*%
D10*
%TO.P,J4,2*%
%TO.N,+3V3*%
X171600000Y-134240000D03*
D11*
%TO.P,J4,1*%
X171600000Y-131700000D03*
%TD*%
D10*
%TO.P,J3,2*%
%TO.N,+5V*%
X179800000Y-134240000D03*
D11*
%TO.P,J3,1*%
X179800000Y-131700000D03*
%TD*%
D10*
%TO.P,J2,34*%
%TO.N,/T_CS*%
X176160000Y-119740000D03*
%TO.P,J2,33*%
%TO.N,/T_SCK*%
X178700000Y-119740000D03*
%TO.P,J2,32*%
%TO.N,/T_PEN*%
X176160000Y-117200000D03*
%TO.P,J2,31*%
%TO.N,Net-(J2-Pad31)*%
X178700000Y-117200000D03*
%TO.P,J2,30*%
%TO.N,/T_MISO*%
X176160000Y-114660000D03*
%TO.P,J2,29*%
%TO.N,/T_MOSI*%
X178700000Y-114660000D03*
%TO.P,J2,28*%
%TO.N,GND*%
X176160000Y-112120000D03*
%TO.P,J2,27*%
%TO.N,+5V*%
X178700000Y-112120000D03*
%TO.P,J2,26*%
%TO.N,+3V3*%
X176160000Y-109580000D03*
%TO.P,J2,25*%
%TO.N,GND*%
X178700000Y-109580000D03*
%TO.P,J2,24*%
%TO.N,/LCD_BL*%
X176160000Y-107040000D03*
%TO.P,J2,23*%
%TO.N,+3V3*%
X178700000Y-107040000D03*
%TO.P,J2,22*%
%TO.N,/FSMC_D15*%
X176160000Y-104500000D03*
%TO.P,J2,21*%
%TO.N,GND*%
X178700000Y-104500000D03*
%TO.P,J2,20*%
%TO.N,/FSMC_D13*%
X176160000Y-101960000D03*
%TO.P,J2,19*%
%TO.N,/FSMC_D14*%
X178700000Y-101960000D03*
%TO.P,J2,18*%
%TO.N,/FSMC_D11*%
X176160000Y-99420000D03*
%TO.P,J2,17*%
%TO.N,/FSMC_D12*%
X178700000Y-99420000D03*
%TO.P,J2,16*%
%TO.N,/FSMC_D9*%
X176160000Y-96880000D03*
%TO.P,J2,15*%
%TO.N,/FSMC_D10*%
X178700000Y-96880000D03*
%TO.P,J2,14*%
%TO.N,/FSMC_D7*%
X176160000Y-94340000D03*
%TO.P,J2,13*%
%TO.N,/FSMC_D8*%
X178700000Y-94340000D03*
%TO.P,J2,12*%
%TO.N,/FSMC_D5*%
X176160000Y-91800000D03*
%TO.P,J2,11*%
%TO.N,/FSMC_D6*%
X178700000Y-91800000D03*
%TO.P,J2,10*%
%TO.N,/FSMC_D3*%
X176160000Y-89260000D03*
%TO.P,J2,9*%
%TO.N,/FSMC_D4*%
X178700000Y-89260000D03*
%TO.P,J2,8*%
%TO.N,/FSMC_D1*%
X176160000Y-86720000D03*
%TO.P,J2,7*%
%TO.N,/FSMC_D2*%
X178700000Y-86720000D03*
%TO.P,J2,6*%
%TO.N,/RST*%
X176160000Y-84180000D03*
%TO.P,J2,5*%
%TO.N,/FSMC_D0*%
X178700000Y-84180000D03*
%TO.P,J2,4*%
%TO.N,/FSMC_NWE*%
X176160000Y-81640000D03*
%TO.P,J2,3*%
%TO.N,/FSMC_NOE*%
X178700000Y-81640000D03*
%TO.P,J2,2*%
%TO.N,/FSMC_NEx*%
X176160000Y-79100000D03*
D11*
%TO.P,J2,1*%
%TO.N,/FSMC_Ax*%
X178700000Y-79100000D03*
%TD*%
D10*
%TO.P,J1,32*%
%TO.N,GND2*%
X191660000Y-79100000D03*
%TO.P,J1,31*%
%TO.N,+3V3*%
X194200000Y-79100000D03*
%TO.P,J1,30*%
%TO.N,GND2*%
X191660000Y-81640000D03*
%TO.P,J1,29*%
%TO.N,Net-(J1-Pad29)*%
X194200000Y-81640000D03*
%TO.P,J1,28*%
%TO.N,/LCD_BL*%
X191660000Y-84180000D03*
%TO.P,J1,27*%
%TO.N,/T_PEN*%
X194200000Y-84180000D03*
%TO.P,J1,26*%
%TO.N,/T_MISO*%
X191660000Y-86720000D03*
%TO.P,J1,25*%
%TO.N,/T_MOSI*%
X194200000Y-86720000D03*
%TO.P,J1,24*%
%TO.N,/T_CS*%
X191660000Y-89260000D03*
%TO.P,J1,23*%
%TO.N,/T_SCK*%
X194200000Y-89260000D03*
%TO.P,J1,22*%
%TO.N,/FSMC_NEx*%
X191660000Y-91800000D03*
%TO.P,J1,21*%
%TO.N,/FSMC_Ax*%
X194200000Y-91800000D03*
%TO.P,J1,20*%
%TO.N,/FSMC_NWE*%
X191660000Y-94340000D03*
%TO.P,J1,19*%
%TO.N,/FSMC_NOE*%
X194200000Y-94340000D03*
%TO.P,J1,18*%
%TO.N,/FSMC_D0*%
X191660000Y-96880000D03*
%TO.P,J1,17*%
%TO.N,/FSMC_D1*%
X194200000Y-96880000D03*
%TO.P,J1,16*%
%TO.N,/FSMC_D2*%
X191660000Y-99420000D03*
%TO.P,J1,15*%
%TO.N,/FSMC_D3*%
X194200000Y-99420000D03*
%TO.P,J1,14*%
%TO.N,/FSMC_D4*%
X191660000Y-101960000D03*
%TO.P,J1,13*%
%TO.N,/FSMC_D5*%
X194200000Y-101960000D03*
%TO.P,J1,12*%
%TO.N,/FSMC_D6*%
X191660000Y-104500000D03*
%TO.P,J1,11*%
%TO.N,/FSMC_D7*%
X194200000Y-104500000D03*
%TO.P,J1,10*%
%TO.N,/FSMC_D8*%
X191660000Y-107040000D03*
%TO.P,J1,9*%
%TO.N,/FSMC_D9*%
X194200000Y-107040000D03*
%TO.P,J1,8*%
%TO.N,/FSMC_D10*%
X191660000Y-109580000D03*
%TO.P,J1,7*%
%TO.N,/FSMC_D11*%
X194200000Y-109580000D03*
%TO.P,J1,6*%
%TO.N,/FSMC_D12*%
X191660000Y-112120000D03*
%TO.P,J1,5*%
%TO.N,/FSMC_D13*%
X194200000Y-112120000D03*
%TO.P,J1,4*%
%TO.N,/FSMC_D14*%
X191660000Y-114660000D03*
%TO.P,J1,3*%
%TO.N,/FSMC_D15*%
X194200000Y-114660000D03*
%TO.P,J1,2*%
%TO.N,/RST*%
X191660000Y-117200000D03*
D11*
%TO.P,J1,1*%
%TO.N,GND*%
X194200000Y-117200000D03*
%TD*%
D12*
%TO.N,GND*%
X185700000Y-117300000D03*
%TO.N,/T_CS*%
X195800000Y-116200000D03*
%TO.N,/T_SCK*%
X187275001Y-116024999D03*
%TD*%
D13*
%TO.N,GND*%
X185700000Y-117300000D02*
X182000000Y-113600000D01*
X182000000Y-112880000D02*
X178700000Y-109580000D01*
X182000000Y-113600000D02*
X182000000Y-112880000D01*
X179940501Y-105740501D02*
X178700000Y-104500000D01*
X179940501Y-108339499D02*
X179940501Y-105740501D01*
X178700000Y-109580000D02*
X179940501Y-108339499D01*
X178700000Y-109580000D02*
X176160000Y-112120000D01*
X174338489Y-130338489D02*
X175700000Y-131700000D01*
X174338489Y-112739430D02*
X174338489Y-130338489D01*
X174957919Y-112120000D02*
X174338489Y-112739430D01*
X176160000Y-112120000D02*
X174957919Y-112120000D01*
X175700000Y-134240000D02*
X175700000Y-131700000D01*
%TO.N,GND2*%
X191660000Y-79100000D02*
X191660000Y-81640000D01*
%TO.N,+3V3*%
X174469489Y-107889489D02*
X176160000Y-109580000D01*
X174469489Y-78322468D02*
X174469489Y-107889489D01*
X175382468Y-77409489D02*
X174469489Y-78322468D01*
X191805431Y-77409489D02*
X175382468Y-77409489D01*
X193495942Y-79100000D02*
X191805431Y-77409489D01*
X194200000Y-79100000D02*
X193495942Y-79100000D01*
X176160000Y-109580000D02*
X178700000Y-107040000D01*
X171600000Y-114140000D02*
X171600000Y-131700000D01*
X176160000Y-109580000D02*
X171600000Y-114140000D01*
X171600000Y-134240000D02*
X171600000Y-131700000D01*
D14*
%TO.N,/LCD_BL*%
X174984999Y-105864999D02*
X176160000Y-107040000D01*
X174984999Y-78535999D02*
X174984999Y-105864999D01*
X175595999Y-77924999D02*
X174984999Y-78535999D01*
X185404999Y-77924999D02*
X175595999Y-77924999D01*
X191660000Y-84180000D02*
X185404999Y-77924999D01*
%TO.N,/T_PEN*%
X179175001Y-118375001D02*
X177335001Y-118375001D01*
X180075021Y-119275021D02*
X179175001Y-118375001D01*
X195682801Y-119275021D02*
X180075021Y-119275021D01*
X197900000Y-117057822D02*
X195682801Y-119275021D01*
X177335001Y-118375001D02*
X176160000Y-117200000D01*
X197900000Y-87880000D02*
X197900000Y-117057822D01*
X194200000Y-84180000D02*
X197900000Y-87880000D01*
%TO.N,/T_MISO*%
X177335001Y-115835001D02*
X176160000Y-114660000D01*
X179074003Y-115835001D02*
X177335001Y-115835001D01*
X182064013Y-118825011D02*
X179074003Y-115835001D01*
X197300000Y-117021412D02*
X195496401Y-118825011D01*
X195496401Y-118825011D02*
X182064013Y-118825011D01*
X194555001Y-85355001D02*
X197300000Y-88100000D01*
X197300000Y-88100000D02*
X197300000Y-117021412D01*
X193024999Y-85355001D02*
X194555001Y-85355001D01*
X191660000Y-86720000D02*
X193024999Y-85355001D01*
%TO.N,/T_MOSI*%
X182415001Y-118375001D02*
X178700000Y-114660000D01*
X195310001Y-118375001D02*
X182415001Y-118375001D01*
X196700000Y-116985002D02*
X195310001Y-118375001D01*
X196700000Y-89220000D02*
X196700000Y-116985002D01*
X194200000Y-86720000D02*
X196700000Y-89220000D01*
%TO.N,/T_CS*%
X196100000Y-115900000D02*
X195800000Y-116200000D01*
X196100000Y-89420998D02*
X196100000Y-115900000D01*
X194764001Y-88084999D02*
X196100000Y-89420998D01*
X192835001Y-88084999D02*
X194764001Y-88084999D01*
X191660000Y-89260000D02*
X192835001Y-88084999D01*
X195800000Y-116200000D02*
X195800000Y-116200000D01*
%TO.N,/T_SCK*%
X195500000Y-90560000D02*
X195500000Y-114200000D01*
X194200000Y-89260000D02*
X195500000Y-90560000D01*
X194574003Y-116024999D02*
X187275001Y-116024999D01*
X195500000Y-115099002D02*
X194574003Y-116024999D01*
X195500000Y-114200000D02*
X195500000Y-115099002D01*
%TO.N,/FSMC_NEx*%
X177335001Y-80275001D02*
X176160000Y-79100000D01*
X180135001Y-80275001D02*
X177335001Y-80275001D01*
X191660000Y-91800000D02*
X180135001Y-80275001D01*
%TO.N,/FSMC_Ax*%
X179760998Y-79100000D02*
X178700000Y-79100000D01*
X191095999Y-90435001D02*
X179760998Y-79100000D01*
X192835001Y-90435001D02*
X191095999Y-90435001D01*
X194200000Y-91800000D02*
X192835001Y-90435001D01*
%TO.N,/FSMC_D0*%
X191400000Y-96880000D02*
X191660000Y-96880000D01*
X178700000Y-84180000D02*
X191400000Y-96880000D01*
%TO.N,/FSMC_D2*%
X191400000Y-99420000D02*
X191660000Y-99420000D01*
X178700000Y-86720000D02*
X191400000Y-99420000D01*
%TO.N,/FSMC_D4*%
X191400000Y-101960000D02*
X191660000Y-101960000D01*
X178700000Y-89260000D02*
X191400000Y-101960000D01*
%TO.N,/FSMC_D6*%
X191400000Y-104500000D02*
X191660000Y-104500000D01*
X178700000Y-91800000D02*
X191400000Y-104500000D01*
%TO.N,/FSMC_D8*%
X191400000Y-107040000D02*
X191660000Y-107040000D01*
X178700000Y-94340000D02*
X191400000Y-107040000D01*
%TO.N,/FSMC_D10*%
X191400000Y-109580000D02*
X191660000Y-109580000D01*
X178700000Y-96880000D02*
X191400000Y-109580000D01*
%TO.N,/FSMC_D12*%
X191400000Y-112120000D02*
X191660000Y-112120000D01*
X178700000Y-99420000D02*
X191400000Y-112120000D01*
%TO.N,/FSMC_D14*%
X191400000Y-114660000D02*
X191660000Y-114660000D01*
X178700000Y-101960000D02*
X191400000Y-114660000D01*
D13*
%TO.N,+5V*%
X174919499Y-114064559D02*
X174919499Y-126819499D01*
X174919499Y-126819499D02*
X179800000Y-131700000D01*
X175564559Y-113419499D02*
X174919499Y-114064559D01*
X178602582Y-113419499D02*
X175564559Y-113419499D01*
X178700000Y-113322081D02*
X178602582Y-113419499D01*
X178700000Y-112120000D02*
X178700000Y-113322081D01*
X179800000Y-131700000D02*
X179800000Y-134240000D01*
%TD*%
D15*
X185700000Y-117300000D03*
X195800000Y-116200000D03*
X187275001Y-116024999D03*
X175700000Y-134240000D03*
X175700000Y-131700000D03*
X171600000Y-134240000D03*
X171600000Y-131700000D03*
X179800000Y-134240000D03*
X179800000Y-131700000D03*
X176160000Y-119740000D03*
X178700000Y-119740000D03*
X176160000Y-117200000D03*
X178700000Y-117200000D03*
X176160000Y-114660000D03*
X178700000Y-114660000D03*
X176160000Y-112120000D03*
X178700000Y-112120000D03*
X176160000Y-109580000D03*
X178700000Y-109580000D03*
X176160000Y-107040000D03*
X178700000Y-107040000D03*
X176160000Y-104500000D03*
X178700000Y-104500000D03*
X176160000Y-101960000D03*
X178700000Y-101960000D03*
X176160000Y-99420000D03*
X178700000Y-99420000D03*
X176160000Y-96880000D03*
X178700000Y-96880000D03*
X176160000Y-94340000D03*
X178700000Y-94340000D03*
X176160000Y-91800000D03*
X178700000Y-91800000D03*
X176160000Y-89260000D03*
X178700000Y-89260000D03*
X176160000Y-86720000D03*
X178700000Y-86720000D03*
X176160000Y-84180000D03*
X178700000Y-84180000D03*
X176160000Y-81640000D03*
X178700000Y-81640000D03*
X176160000Y-79100000D03*
X178700000Y-79100000D03*
X191660000Y-79100000D03*
X194200000Y-79100000D03*
X191660000Y-81640000D03*
X194200000Y-81640000D03*
X191660000Y-84180000D03*
X194200000Y-84180000D03*
X191660000Y-86720000D03*
X194200000Y-86720000D03*
X191660000Y-89260000D03*
X194200000Y-89260000D03*
X191660000Y-91800000D03*
X194200000Y-91800000D03*
X191660000Y-94340000D03*
X194200000Y-94340000D03*
X191660000Y-96880000D03*
X194200000Y-96880000D03*
X191660000Y-99420000D03*
X194200000Y-99420000D03*
X191660000Y-101960000D03*
X194200000Y-101960000D03*
X191660000Y-104500000D03*
X194200000Y-104500000D03*
X191660000Y-107040000D03*
X194200000Y-107040000D03*
X191660000Y-109580000D03*
X194200000Y-109580000D03*
X191660000Y-112120000D03*
X194200000Y-112120000D03*
X191660000Y-114660000D03*
X194200000Y-114660000D03*
X191660000Y-117200000D03*
X194200000Y-117200000D03*
M02*
