M48
; DRILL file {KiCad (5.1.9)-1} date 05/11/21 19:40:18
; FORMAT={-:-/ absolute / metric / decimal}
; #@! TF.CreationDate,2021-05-11T19:40:18+08:00
; #@! TF.GenerationSoftware,Kicad,Pcbnew,(5.1.9)-1
; #@! TF.FileFunction,Plated,1,2,PTH
FMAT,2
METRIC
T1C0.400
T2C1.000
%
G90
G05
T1
X185.7Y-117.3
X187.275Y-116.025
X195.8Y-116.2
T2
X171.6Y-131.7
X171.6Y-134.24
X175.7Y-131.7
X175.7Y-134.24
X176.16Y-79.1
X176.16Y-81.64
X176.16Y-84.18
X176.16Y-86.72
X176.16Y-89.26
X176.16Y-91.8
X176.16Y-94.34
X176.16Y-96.88
X176.16Y-99.42
X176.16Y-101.96
X176.16Y-104.5
X176.16Y-107.04
X176.16Y-109.58
X176.16Y-112.12
X176.16Y-114.66
X176.16Y-117.2
X176.16Y-119.74
X178.7Y-79.1
X178.7Y-81.64
X178.7Y-84.18
X178.7Y-86.72
X178.7Y-89.26
X178.7Y-91.8
X178.7Y-94.34
X178.7Y-96.88
X178.7Y-99.42
X178.7Y-101.96
X178.7Y-104.5
X178.7Y-107.04
X178.7Y-109.58
X178.7Y-112.12
X178.7Y-114.66
X178.7Y-117.2
X178.7Y-119.74
X179.8Y-131.7
X179.8Y-134.24
X191.66Y-79.1
X191.66Y-81.64
X191.66Y-84.18
X191.66Y-86.72
X191.66Y-89.26
X191.66Y-91.8
X191.66Y-94.34
X191.66Y-96.88
X191.66Y-99.42
X191.66Y-101.96
X191.66Y-104.5
X191.66Y-107.04
X191.66Y-109.58
X191.66Y-112.12
X191.66Y-114.66
X191.66Y-117.2
X194.2Y-79.1
X194.2Y-81.64
X194.2Y-84.18
X194.2Y-86.72
X194.2Y-89.26
X194.2Y-91.8
X194.2Y-94.34
X194.2Y-96.88
X194.2Y-99.42
X194.2Y-101.96
X194.2Y-104.5
X194.2Y-107.04
X194.2Y-109.58
X194.2Y-112.12
X194.2Y-114.66
X194.2Y-117.2
T0
M30
